<svg id="Layer_1" xmlns="http://www.w3.org/2000/svg" viewBox="0 0 655.3 62.7"><style>.st0{fill:#fff}</style><path class="st0" d="M21.5 59.3h16.3l3.2-5H18.3zm-5.2-9h26.9l3-5H13.3zm28-44c-.6-1.1-2.1-2-3.3-2H18.5c-1.2 0-2.7.9-3.3 2L4 25.8c-.6 1.1-.6 2.4 0 3.4l7.2 12.1h5.9L9.2 27.9l10.3-17.5h20.6l10.3 17.5-7.9 13.5h5.9l7.2-12.1c.6-1.1.6-2.6 0-3.7L44.3 6.3zm63 27.9L93.9 15.3h-4.6v25h4V22.6l14.3 17.7h3.7v-25h-4zm15 6.1h17v-4h-13v-7h11v-3h-11v-7h13v-4h-17zm23-21h8v21h4v-21h7v-4h-19zm49.4 13.5l-5.4-17.5h-3.6l-5.4 17.5-6.1-17.5h-4.4l8.4 25h4.1l5.1-17h.2l5.1 17h4.1l8.4-25h-4.4zm28.7-17.3c-3.6 0-6.6 1.2-9.1 3.6-2.4 2.4-3.7 5.4-3.7 8.9 0 3.6 1.2 6.5 3.7 8.9 2.4 2.4 5.5 3.6 9.1 3.6 3.6 0 6.6-1.2 9.1-3.6 2.4-2.4 3.7-5.4 3.7-8.9 0-3.6-1.2-6.5-3.7-8.9-2.5-2.4-5.5-3.6-9.1-3.6zm6.1 18.7c-1.7 1.7-3.7 2.6-6.1 2.6-2.4 0-4.4-.9-6.1-2.6s-2.5-3.8-2.5-6.2c0-2.4.8-4.5 2.5-6.2s3.7-2.6 6.1-2.6c2.4 0 4.4.9 6.1 2.6 1.7 1.7 2.5 3.8 2.5 6.2 0 2.4-.9 4.5-2.5 6.2zm34.6-10.3c0-2.7-.8-5.1-2.4-6.4-1.6-1.2-4.2-2.2-7.9-2.2h-9.5v25h4v-9h5.9l5.8 9h5.2l-6.3-8.8c3.5-1 5.2-3.6 5.2-7.6zM254 28.3h-5.6v-9h5.7c2.2 0 3.7.5 4.6 1.1.9.6 1.3 1.8 1.3 3.4 0 1.6-.4 2.7-1.2 3.4-1 .8-2.5 1.1-4.8 1.1zm39.8-13h-5.2l-11.3 12.6V15.3h-4v25h4v-6.8l3.7-3.8 8.1 10.6h4.9l-9.9-14zm31.6.2c-3.6 0-6.6 1.2-9.1 3.6-2.4 2.4-3.7 5.4-3.7 8.9 0 3.6 1.2 6.5 3.7 8.9 2.4 2.4 5.5 3.6 9.1 3.6 3.6 0 6.6-1.2 9.1-3.6 2.4-2.4 3.7-5.4 3.7-8.9 0-3.6-1.2-6.5-3.7-8.9-2.4-2.4-5.4-3.6-9.1-3.6zm6.1 18.7c-1.7 1.7-3.7 2.6-6.1 2.6-2.4 0-4.4-.9-6.1-2.6-1.7-1.7-2.5-3.8-2.5-6.2 0-2.4.8-4.5 2.5-6.2 1.7-1.7 3.7-2.6 6.1-2.6 2.4 0 4.4.9 6.1 2.6 1.7 1.7 2.5 3.8 2.5 6.2 0 2.4-.8 4.5-2.5 6.2zm14.8 6.1h4v-10h11v-4h-11v-7h12.6l.1-4h-16.7zm37-25h5v25h-5zm33 18.9l-13.8-18.9h-4.2v25h4V22.6l13.9 17.7h4.1v-25h-4zm32 0l-13.4-18.9h-4.6v25h4V22.6l14.3 17.7h3.7v-25h-4zm26.1-18.7c-3.6 0-6.6 1.2-9.1 3.6-2.4 2.4-3.7 5.4-3.7 8.9 0 3.6 1.2 6.5 3.7 8.9 2.4 2.4 5.5 3.6 9.1 3.6 3.6 0 6.6-1.2 9.1-3.6 2.4-2.4 3.7-5.4 3.7-8.9 0-3.6-1.2-6.5-3.7-8.9-2.4-2.4-5.4-3.6-9.1-3.6zm6.1 18.7c-1.7 1.7-3.7 2.6-6.1 2.6-2.4 0-4.4-.9-6.1-2.6-1.7-1.7-2.5-3.8-2.5-6.2 0-2.4.8-4.5 2.5-6.2 1.7-1.7 3.7-2.6 6.1-2.6 2.4 0 4.4.9 6.1 2.6 1.7 1.7 2.5 3.8 2.5 6.2 0 2.4-.8 4.5-2.5 6.2zm23.7-.8l-7.5-18.1h-4.6l9.8 25h4.6l9.7-25h-4.6zM529 15.3l-10.7 25h4.4l2.4-6h12.1l2.4 6h4.4l-10.7-25H529zm-2.2 15l4.4-10 4.4 10h-8.8zm19.5-11h7v21h4v-21h8v-4h-19zm37.6-3.8c-3.6 0-6.6 1.2-9.1 3.6-2.4 2.4-3.7 5.4-3.7 8.9 0 3.6 1.2 6.5 3.7 8.9 2.4 2.4 5.5 3.6 9.1 3.6 3.6 0 6.6-1.2 9.1-3.6 2.4-2.4 3.7-5.4 3.7-8.9 0-3.6-1.2-6.5-3.7-8.9-2.5-2.4-5.5-3.6-9.1-3.6zm6.1 18.7c-1.7 1.7-3.7 2.6-6.1 2.6-2.4 0-4.4-.9-6.1-2.6-1.7-1.7-2.5-3.8-2.5-6.2 0-2.4.8-4.5 2.5-6.2 1.7-1.7 3.7-2.6 6.1-2.6 2.4 0 4.4.9 6.1 2.6 1.7 1.7 2.5 3.8 2.5 6.2 0 2.4-.9 4.5-2.5 6.2zm34.6-10.3c0-2.7-.8-5.1-2.4-6.4-1.6-1.2-4.2-2.2-7.9-2.2h-8.9v25h4v-9h5.4l5.8 9h5.2l-6.3-8.8c3.4-1 5.1-3.6 5.1-7.6zm-10.2 4.4h-5.1v-9h5.2c2.2 0 3.7.5 4.6 1.1.9.6 1.3 1.8 1.3 3.4 0 1.6-.4 2.7-1.2 3.4-.9.8-2.4 1.1-4.8 1.1zm34.4.3c-1.3-1.1-3.1-1.9-5.6-2.5-2.5-.6-4.1-1.2-4.9-1.7-.8-.5-1.1-1.3-1.1-2.2 0-1 .4-1.7 1.1-2.2.8-.5 1.7-.7 2.9-.7s2.4.2 3.6.6c1.2.4 2.2.9 2.9 1.6l2.2-3.1c-1.1-.9-2.4-1.6-3.9-2.1s-3.1-.8-4.6-.8c-2.4 0-4.4.6-6 1.8-1.6 1.2-2.4 2.9-2.4 5.2 0 2.2.7 3.9 2.1 5 .7.6 1.5 1 2.5 1.4.9.4 2.3.8 4.1 1.2 1.8.4 3 .9 3.8 1.4.7.5 1.1 1.2 1.1 2.2 0 .9-.4 1.7-1.2 2.3-.8.6-1.8.8-3.1.8-2.6 0-5.2-1.1-7.6-3.2l-2.6 3.1c2.9 2.6 6.3 3.9 10.1 3.9 2.6 0 4.7-.7 6.3-2 1.6-1.3 2.4-3 2.4-5.1s-.8-3.8-2.1-4.9z"/></svg>